PathFileType	4	(X/Y/Z)	Patient4_TMGait_0pt2_02_right_18.trc.trc
DataRate	CameraRate	NumFrames	NumMarkers	Units	OrigDataRate	OrigDataStartFrame	OrigNumFrames
47.945205479452	47.945205479452	6	33	mm	47.945205479452	1	       141
Frame#	Time	R.Midfoot.Superior			Sacral			L.Shoulder			Chest			R.Shoulder			Neck			R.ASIS			L.ASIS			R.Thigh.Superior			R.Thigh.Lateral			R.Thigh.Inferior			R.Patella			L.Thigh.Superior			L.Thigh.Lateral			L.Thigh.Inferior			L.Patella			L.Shank.Superior			L.Shank.Lateral			L.Shank.Inferior			R.Shank.Superior			R.Shank.Lateral			R.Shank.Inferior			R.Heel			R.Midfoot.Lateral			R.Toe			L.Heel			L.Midfoot.Lateral			L.Midfoot.Superior			L.Toe			L.Elbow			L.Wrist			R.Elbow			R.Wrist			
		X1	Y1	Z1	X2	Y2	Z2	X3	Y3	Z3	X4	Y4	Z4	X5	Y5	Z5	X6	Y6	Z6	X7	Y7	Z7	X8	Y8	Z8	X9	Y9	Z9	X10	Y10	Z10	X11	Y11	Z11	X12	Y12	Z12	X13	Y13	Z13	X14	Y14	Z14	X15	Y15	Z15	X16	Y16	Z16	X17	Y17	Z17	X18	Y18	Z18	X19	Y19	Z19	X20	Y20	Z20	X21	Y21	Z21	X22	Y22	Z22	X23	Y23	Z23	X24	Y24	Z24	X25	Y25	Z25	X26	Y26	Z26	X27	Y27	Z27	X28	Y28	Z28	X29	Y29	Z29	X30	Y30	Z30	X31	Y31	Z31	X32	Y32	Z32	X33	Y33	Z33	

1	39.990000000000	951.859184803177	143.949229403588	609.244513481378	899.520710053393	992.619107103439	406.296384792831	1083.402985129196	1413.025517649785	203.197070039173	1187.773491698085	1346.618590587558	363.797066228427	1113.064062800345	1428.319250161918	537.560789524775	1069.857435193363	1480.817615806980	358.942295499468	1132.356912639218	929.406924721927	516.925049065477	1111.124728412127	943.911623724539	242.600191076523	1194.396044033907	740.126661070607	498.188983348935	1136.492576990164	630.036155695761	579.716921966539	1218.290786148170	573.462108282703	502.141090079271	1221.025438073308	463.277673199075	532.618807151782	1176.963869708743	744.601812780736	285.326618714088	1103.850086301480	614.027685698110	236.022495508853	1197.413141590964	550.495451213372	304.690124725121	1204.492027591931	475.539214626972	316.500032951236	1164.393977602632	400.688984093368	315.034110299386	1060.296221762204	297.129544060095	268.450162770676	1090.307169320987	184.303832557815	345.163928151788	1139.807049944965	397.993967758233	549.365590053530	1019.800199852919	373.213888837642	620.213858320233	994.546123321785	261.482792018676	580.643022671438	788.658338972067	216.976997261329	566.519687300670	843.281014387011	156.660549197561	643.282843484502	1005.929856364943	29.072025505220	641.396136930827	942.517921990631	40.751961784550	392.057467747571	1015.120249476013	36.919687760630	310.905363024054	1100.362674852299	95.995525692308	336.653441296236	1226.947710942098	40.271030994852	304.426258400173	1144.998025771736	1068.074954642739	81.589261811596	1314.974564646515	868.725511570507	109.962943027199	1052.418377149398	1085.705421649277	669.009274598945	1084.171733591546	826.493560807617	685.156382530353	
2	40.010857142857	962.163712838422	146.522477935596	605.967992555479	897.966614499175	992.858471160269	402.132992075587	1085.469373317000	1413.648077161344	201.918163213281	1186.072530373666	1347.739959604410	364.857181281108	1107.020929346262	1429.372372726087	536.551837646553	1068.201950091008	1481.472864434760	357.297170002262	1129.560419857165	930.649483924336	516.327123764149	1112.176587622752	944.538653519390	241.634402642159	1195.352160926135	744.544743213563	496.511690465202	1140.603561226367	633.292764915717	578.176496557924	1223.581740501991	578.570130917411	500.561217860721	1228.751960328107	468.156485846631	531.406278145406	1176.045030424903	743.803010377943	284.167868746136	1101.945664548916	613.746614373986	234.935848909482	1194.417948832419	549.686414724993	304.191343939846	1200.907804862747	475.066355474138	316.408347378935	1160.656574348451	400.278972811477	314.799270284972	1056.656085358459	296.778695273489	267.829122781170	1086.129139893669	184.069448377788	345.013745637923	1147.977817341314	401.669255756730	547.799455567537	1027.476328090472	375.912296059328	617.662385954736	1003.460726416280	263.866282283317	578.076728169099	797.517860591924	216.463440050618	563.092204588878	853.210960715816	156.899015605171	639.710638181321	1018.419749723789	32.290533154305	637.756635781750	938.170747650000	40.636812935739	391.951665426670	1010.821616074352	36.826266379606	310.750425276615	1096.019387883719	95.927347754199	336.570688673605	1222.679079290269	40.323813940179	304.412087565472	1154.844199373642	1071.550267783394	79.145975636473	1334.523488722704	882.568578746273	108.695555602816	1030.183124768756	1092.507860102142	667.235357180185	1050.957421783117	833.085511941185	685.087418892830	
3	40.031714285714	973.702297793421	148.472558568506	602.938643635637	896.394998505854	993.370072746477	397.855090286007	1087.629963528480	1414.524156062610	200.720995794806	1184.301491406904	1349.122779006809	366.035788953790	1100.809398698570	1430.710185487252	535.552400117127	1066.496159393249	1482.374788109350	355.675738942291	1126.572698056000	932.166521583272	515.854816579312	1113.313845746128	945.362681444695	240.803173886488	1196.049379821403	749.183761680794	495.067119196634	1144.319224566865	636.772106252922	576.801744538452	1228.499231720517	583.908640646312	499.233746343349	1236.153114674540	473.392675368439	530.409400515386	1174.888092179639	743.080231224889	283.151408816737	1099.651788421391	613.659202003172	233.861246671724	1190.897570504366	548.955989615624	303.725310797239	1196.707420149263	474.719049001659	316.328187636958	1156.391100935354	400.032448406225	314.536887187669	1052.591817446158	296.486833308288	267.187966394450	1081.668490053992	183.918401366235	344.841629973876	1156.112599333424	405.507550463096	546.435925356266	1035.320417705541	378.216285391447	615.367987229489	1013.055432256421	265.794901343768	575.757915881497	807.406827871282	214.590687615783	559.980901278288	864.419011540357	155.995079468008	636.384112626658	1032.602370175327	35.185191173139	634.254709537940	933.674068000563	40.519648330183	391.845053582677	1006.375016878372	36.730092909346	310.594194223563	1091.528963402963	95.866682438915	336.473454911852	1218.264670025513	40.383409311647	304.402459369869	1164.733682110301	1075.294583259793	76.865708918770	1354.229406293061	897.220963605853	107.580113020670	1007.858751588668	1099.747966503290	665.236002292479	1017.843961340995	840.157504461692	684.665074012239	
4	40.052571428571	986.664617118070	149.505826416916	600.404033695017	894.849694320612	994.237902570183	393.576287034214	1089.848488582986	1415.711268292514	199.692709959011	1182.493559173487	1350.808104201783	367.348653518540	1094.580072646191	1432.385403290704	534.606876723024	1064.781071145430	1483.578578109899	354.155968641788	1123.414429117381	934.000974212790	515.582043090613	1114.521998125891	946.417544006874	240.202620851104	1196.321019921845	753.927412100589	494.007556882623	1147.291531935676	640.413293636441	575.723686402237	1232.648950302704	589.331823937612	498.314663700022	1242.764200393701	478.922724779430	529.754958885194	1173.423481412812	742.480132195650	282.378168543528	1096.879452493467	613.840382410408	232.844817431808	1186.746974835147	548.356059878963	303.322907866307	1191.769939451589	474.553741061084	316.265694596643	1151.520403793442	400.019990224195	314.241984212922	1048.060322399286	296.285678111168	266.540454932781	1076.954370251423	183.887708376679	344.644460886892	1163.870284027159	409.430841322004	545.424007190706	1043.145088019324	379.856820231275	613.552719244783	1023.321662119039	267.017199257764	573.904197759163	818.534420256092	210.832036077173	557.479497571054	877.170336614955	153.533714171834	633.585891268598	1048.773608627721	37.623102118945	631.135864292048	929.113001517322	40.402989576721	391.742178012066	1001.864657439444	36.632951794888	310.441624227106	1086.976426926601	95.818110772295	336.360184270208	1213.787803218264	40.450953968120	304.399566575541	1174.341717010004	1079.276691491107	74.910333842846	1373.446091537750	912.528644407593	106.738470879486	986.240452492754	1107.295733024042	662.978429286533	986.107332604979	847.596515988645	683.737561238959	
5	40.073428571429	1001.220340935750	149.445398810273	598.588158272801	893.361859074176	995.506003450049	389.394095597873	1092.094977228587	1417.231833216586	198.905208268760	1180.676601814516	1352.802777815831	368.809536990133	1088.454780453505	1434.412468583074	533.753145253752	1063.091876273601	1485.105494625823	352.804613571682	1120.104361882470	936.163200910826	515.567339810621	1115.780658620715	947.706601876008	239.910559306436	1196.022362629052	758.642822951513	493.449283159763	1149.227749771218	644.135701132895	575.046981666814	1235.690081982545	594.677774486442	497.918832747093	1248.189483594007	484.660598845241	529.533269787066	1171.595779449608	742.026874570797	281.921574712543	1093.564978999805	614.335113921371	231.918807908641	1181.894183547347	547.918184987360	303.002041832186	1186.012900262414	474.603996008668	316.218337902424	1145.996584292135	400.285549195704	313.905816352003	1043.033413510812	296.194802815464	265.895575640993	1072.009417912725	184.000850059419	344.419359234364	1170.960281679020	413.361558997419	544.885893884687	1050.813824230231	380.624982738491	612.407905959266	1034.264740335218	267.360056626375	572.709295950071	831.125648323614	204.806309802315	555.856929237595	891.725898732956	149.253385752492	631.582679253931	1067.176228179035	39.591360741925	628.639630580647	924.549586246856	40.288373100952	391.647588454561	997.350791986469	36.536261102518	310.296957024248	1082.422719949365	95.784393865982	336.231264519467	1209.307804274639	40.527693151598	304.404868427715	1183.425173419097	1083.453037072007	73.407172031332	1391.664067426114	928.364685350472	106.275147212300	965.972240651089	1114.985066673426	660.436802837536	956.769022186433	855.241011827454	682.189100752614	
6	40.094285714286	1017.465652208950	148.262517466965	597.663853948815	891.949127052016	997.166420197485	385.390096321921	1094.342964725506	1419.062932614233	198.409521314706	1178.873474458761	1355.070299778345	370.426376715644	1082.525802977545	1436.757076688615	533.021419065354	1061.456947752061	1486.933255378542	351.673718855718	1116.665361225347	938.620275999702	515.846401222333	1117.061548080422	949.197147982600	239.977826226344	1195.047428989820	763.179846681891	493.458618040196	1149.919772144309	647.836174325018	574.840241400697	1237.366824036163	599.769630107468	498.107080271352	1252.134108498105	490.490414497907	529.787485889117	1169.376459302854	741.718931868463	281.820782945390	1089.688570206353	615.149108056274	231.101540338911	1176.323573396505	547.649414979611	302.767651732830	1179.419045115695	474.874285749735	316.177017934310	1139.822321117102	400.838299249769	313.519371980275	1037.514470402091	296.218647564858	265.258869270998	1066.858046157626	184.263425860679	344.165216253802	1177.159611074334	417.221308836279	544.901839936139	1058.242392636523	380.395423424800	612.072333473297	1045.878637912810	266.753621948291	572.317773534185	845.370980625982	196.349076405395	555.322638785004	908.280020729971	143.099546026871	630.591920493145	1087.923716719550	41.204806444022	626.970901394277	920.023336446477	40.176473412194	391.565418418140	992.870534238941	36.441149949324	310.163543170354	1077.905439719578	95.766085230509	336.089570334930	1204.860792879670	40.614479818927	304.418933369155	1191.833306951923	1087.761341377875	72.438519737934	1408.531414216041	944.610248476534	106.266907022301	947.515713104508	1122.610116517743	657.602800724460	930.538082468220	862.876916697029	679.957672487501	
